<svg width="366" height="366" viewBox="0 0 366 366" fill="none" xmlns="http://www.w3.org/2000/svg">
<path d="M118 104.505V7.24264C118 4.56993 121.231 3.23143 123.121 5.12132L179.121 61.1213C179.684 61.6839 180 62.447 180 63.2426V160.736C180 163.412 176.762 164.749 174.874 162.853L118.874 106.622C118.314 106.059 118 105.298 118 104.505Z" fill="#DFC199"/>
<path d="M249 104.505V7.24264C249 4.56993 245.769 3.23143 243.879 5.12132L187.879 61.1213C187.316 61.6839 187 62.447 187 63.2426V160.736C187 163.412 190.238 164.749 192.126 162.853L248.126 106.622C248.686 106.059 249 105.298 249 104.505Z" fill="#DFC199"/>
<path d="M118 261.495V358.757C118 361.43 121.231 362.769 123.121 360.879L179.121 304.879C179.684 304.316 180 303.553 180 302.757V205.264C180 202.588 176.762 201.251 174.874 203.147L118.874 259.378C118.314 259.941 118 260.702 118 261.495Z" fill="#DFC199"/>
<path d="M249 261.495V358.757C249 361.43 245.769 362.769 243.879 360.879L187.879 304.879C187.316 304.316 187 303.553 187 302.757V205.264C187 202.588 190.238 201.251 192.126 203.147L248.126 259.378C248.686 259.941 249 260.702 249 261.495Z" fill="#DFC199"/>
<path d="M104.505 248H7.24264C4.56993 248 3.23143 244.769 5.12132 242.879L61.1213 186.879C61.6839 186.316 62.447 186 63.2426 186H160.736C163.412 186 164.749 189.238 162.853 191.126L106.622 247.126C106.059 247.686 105.298 248 104.505 248Z" fill="#DFC199"/>
<path d="M104.505 117H7.24264C4.56993 117 3.23143 120.231 5.12132 122.121L61.1213 178.121C61.6839 178.684 62.447 179 63.2426 179H160.736C163.412 179 164.749 175.762 162.853 173.874L106.622 117.874C106.059 117.314 105.298 117 104.505 117Z" fill="#DFC199"/>
<path d="M261.495 248H358.757C361.43 248 362.769 244.769 360.879 242.879L304.879 186.879C304.316 186.316 303.553 186 302.757 186H205.264C202.588 186 201.251 189.238 203.147 191.126L259.378 247.126C259.941 247.686 260.702 248 261.495 248Z" fill="#DFC199"/>
<path d="M261.495 117H358.757C361.43 117 362.769 120.231 360.879 122.121L304.879 178.121C304.316 178.684 303.553 179 302.757 179H205.264C202.588 179 201.251 175.762 203.147 173.874L259.378 117.874C259.941 117.314 260.702 117 261.495 117Z" fill="#DFC199"/>
</svg>
